<svg id="Capa_1" data-name="Capa 1" xmlns="http://www.w3.org/2000/svg" viewBox="0 0 331.59 318.95"><path d="M870.55,650.24c-4.81-9.22-3.18-16.89,1-24.56s8-15.52,11.87-23.37a13.85,13.85,0,0,0,1.38-5.69c.15-8.49.06-17,.06-25.82-1.27.28-2.42.51-3.56.79A22.28,22.28,0,0,1,853.93,546c2.7-16,5.26-32,8.14-48,.43-2.41,2.25-4.57,3.92-7.8-2.91-11.24,2.15-22.53,14.6-26.51,11-3.52,20.95,2,26.76,14.61l6.21-4c-13.65-18.09-13-35.69,1.68-47a30.29,30.29,0,0,1,42.68,5.49c9.11,11.85,9.57,32.39-7.77,44.19,7.58,7.91,15.2,16,23,23.81.85.87,2.71.91,4.13,1,2.6.15,5.21,0,8.23,0-2.42-8.51-4.72-16.64-7-24.76-.27-1-.59-1.92-.81-2.89-.76-3.3.66-6.09,3.62-6.74,3.2-.71,5.4.78,6.34,3.8,1.6,5.13,3,10.31,4.5,15.46.66,2.28,1.37,4.54,2,6.84,1.18,4.69,2.38,8.29,8.24,10.24,9.62,3.21,11.85,16.57,4.74,24.07-2,2.06-2.15,3.69-1.41,6.2q10.33,35.59,20.43,71.27c.77,2.76,1.93,3.76,4.86,3.65,6.35-.24,12.73-.21,19.08,0,2.57.08,4-.88,5.49-2.89,14-19.3,28.21-38.48,42.2-57.8,2.14-2.95,4.53-4.3,8.14-4.14,4.61.2,9.23,0,13.85.08,3.81.07,6.07,2.06,6.11,5.13s-2.22,5.11-6,5.33a6.19,6.19,0,0,1-1.49,0c-9.09-1.77-14.58,2.22-19.71,9.8-11.67,17.27-24.5,33.76-36.73,50.65a9.36,9.36,0,0,1-8.45,4.34q-24-.21-47.92,0a8.59,8.59,0,0,0-5.21,2.05q-19.2,17.29-38.12,34.92a12.91,12.91,0,0,1-9.65,3.81q-42.1-.22-84.22,0a13.71,13.71,0,0,0-7.2,2.17c-17,11.4-33.84,23-50.74,34.55a17.24,17.24,0,0,1-3.18,2c-2.46,1-4.73.5-6.3-1.75s-1.29-4.74.72-6.78a15.68,15.68,0,0,1,2.39-1.79c16-10.92,32-21.79,47.89-32.76C857.26,652.22,862.33,647.93,870.55,650.24Zm27.16-111.37c14.07,1,26.9.16,39.46-3.64,4.25-1.29,4.78-4.19,1.38-7.31-3.86-3.54-7.8-7-11.66-10.56-3.09-2.84-3.5-5.65-1.31-8.15s5.26-2.33,8.24.3c4.3,3.81,8.45,7.78,12.83,11.49a7.2,7.2,0,0,0,4.26,1.62c14.34.12,28.69.08,43,0,4.44,0,6.75-1.86,6.69-5.25s-2.31-5-6.53-5c-6.61,0-13.22-.16-19.83,0a9.88,9.88,0,0,1-7.91-3.32c-7.09-7.21-14.18-14.44-21.56-21.34a23.23,23.23,0,0,0-38.53,11c-.53,1.93-1,3.86-1.43,5.82C902.49,515.77,900.18,527,897.71,538.87ZM951,533.19c-.77,5.44-1.26,10.55-2.27,15.55-.71,3.49.41,5.16,3.64,6.34,12.14,4.41,21.4,12.36,28.52,23.14,4.6,7,9.9,13.48,14.69,20.32,1.84,2.63,3.08,5.67,4.72,8.43.48.8,1.4,1.83,2.16,1.86,4.44.17,8.9.09,13.78.09-1.38-4.85-2.62-9.27-3.88-13.67-5.65-19.66-11.27-39.32-17-58.93-.35-1.21-1.81-3-2.78-3C978.84,533.13,965.14,533.19,951,533.19Zm-54.44,16.3c-.41,3.46-.9,6.41-1.08,9.38-.54,8.53,4.6,14.68,13,15.74,2.1.27,4.21.4,6.32.62,17.69,1.92,32.79,8.84,44.18,22.94,5.18,6.41,10.29,12.86,15.57,19.18,3.61,4.31,8.62,4.9,12.57,1.78s4.52-8,1.25-12.66-6.72-9.31-10.14-13.91c-14.74-19.81-12.43-20.57-36.86-31-3-1.3-4.41-3.46-3.94-6.8.4-2.8.66-5.61,1-8.41-7.13,1.09-13.83,2.53-20.6,3C910.93,549.89,903.94,549.49,896.56,549.49Zm10.84,99.92a14.15,14.15,0,0,0,1.68.29q21.48,0,43,0a3.9,3.9,0,0,0,2.44-.59c6.8-6.11,13.52-12.31,19.72-18-3.38-3.29-6.7-6.08-9.49-9.34-5.52-6.43-10.74-13.12-16.09-19.7-5.6-6.89-13.1-10.58-21.64-13.33,0,6,.24,11.49-.09,17a24.05,24.05,0,0,1-2.13,8.87c-5.22,10.76-10.79,21.35-16.21,32C908.13,647.42,907.84,648.33,907.4,649.41Zm-12-67.27c0,4.24-.15,9,.05,13.73a22.32,22.32,0,0,1-2.82,11.81c-4.59,8.58-8.94,17.29-13.27,26-3,6-.89,12.35,4.66,15,5.32,2.56,11.35.56,14.28-5.08,5.88-11.29,11.59-22.67,17.35-34a5,5,0,0,0,.77-2.08c.06-7.09,0-14.19,0-20.86Zm18.72-131a19.73,19.73,0,1,0,39.45,0,19.73,19.73,0,1,0-39.45,0Zm-42.34,51.91c-2.6,15.55-5.27,30.62-7.55,45.76-.89,5.89,3.14,11.1,8.84,12.61,6.25,1.66,11.48-1.62,12.42-7.88.82-5.42,1.4-10.88,2.31-16.29,1.68-10,3.53-20.06,5.37-30.45Zm14.72-29.83a10.71,10.71,0,0,0-10.61,10.8,10.71,10.71,0,1,0,21.42-.22A10.67,10.67,0,0,0,886.51,473.26Z" transform="translate(-794.2 -380.53)"/><path d="M1063.17,465.85h-16.45c-15.64,0-29.22-14-28.64-29.68.43-11.51,5.89-20.06,16.22-25s20.15-2.25,28.53,4.72c4.6,3.83,8,6.43,14.9,4.44,9-2.6,17.9,2.84,22.53,11a22.18,22.18,0,0,1-1.86,25.27c-4.66,5.85-10.15,10.05-18.42,9.27C1074.42,465.42,1068.77,465.85,1063.17,465.85Zm-.26-10.51c6.24,0,12.48,0,18.72,0a8.06,8.06,0,0,0,3.56-.69c7-3.7,9.6-11.79,5.89-18.14-3.82-6.58-11.47-8-18.46-3.32-3.74,2.48-5.65,2-8.74-1.23-3.33-3.5-6.62-7.3-10.66-9.77a18.45,18.45,0,0,0-10.94-2.44c-8.41,1-14.44,9.8-13.68,18.68.74,8.68,9.05,16.92,17.09,16.94C1051.43,455.35,1057.17,455.34,1062.91,455.34Z" transform="translate(-794.2 -380.53)"/><path d="M863.43,426.9a23,23,0,1,1-23.14-23A23,23,0,0,1,863.43,426.9Zm-22.87,12.59A12.57,12.57,0,1,0,827.93,427,12.49,12.49,0,0,0,840.56,439.49Z" transform="translate(-794.2 -380.53)"/><path d="M810.31,461.32c-.71-.53-2.7-1.31-3.36-2.72a6.26,6.26,0,0,1,.15-5.19,19.24,19.24,0,0,1,5.75-5.72,5.89,5.89,0,0,1,5.15,0,6.51,6.51,0,0,1,2.56,4.49C820.88,455.26,814.55,461.25,810.31,461.32Z" transform="translate(-794.2 -380.53)"/><path d="M845.6,388.71c0,.88,0,1.75,0,2.62-.14,3.26-1.88,5.23-5.08,5.3s-5-2-5.28-5.14a32.84,32.84,0,0,1,0-5.61c.28-3.39,2.58-5.65,5.51-5.32,3.19.35,4.84,2.29,4.89,5.53,0,.88,0,1.75,0,2.62Z" transform="translate(-794.2 -380.53)"/><path d="M865.59,408.19c-2.07-1.75-4-2.65-4.62-4.11a6.66,6.66,0,0,1,.41-5.19,19.49,19.49,0,0,1,4.89-5.08,4.81,4.81,0,0,1,7,.52,4.69,4.69,0,0,1,.14,6.78C871.17,403.57,868.46,405.64,865.59,408.19Z" transform="translate(-794.2 -380.53)"/><path d="M802,432.05a26.72,26.72,0,0,1-3.35,0,4.7,4.7,0,0,1-4.46-4.69c-.21-2.68,1-4.86,3.7-5.28a28.36,28.36,0,0,1,8.48,0c2.62.41,4,2.53,3.78,5.23a4.81,4.81,0,0,1-4.79,4.79c-1.11.1-2.24,0-3.36,0Z" transform="translate(-794.2 -380.53)"/><path d="M820.65,401.75c.09,3.92-4.34,6.79-7.59,4.61a23.44,23.44,0,0,1-6.06-6c-2.27-3.26.41-7.75,4.34-7.78C814.49,392.57,820.58,398.56,820.65,401.75Z" transform="translate(-794.2 -380.53)"/><path d="M878.51,432.08c-1,0-2,.08-3,0-2.89-.26-4.57-1.87-4.78-4.77a4.69,4.69,0,0,1,4.06-5.4,26.17,26.17,0,0,1,6.68-.2c3.38.24,5.45,2.55,5.17,5.6-.31,3.3-2.35,4.76-5.54,4.81h-2.61Z" transform="translate(-794.2 -380.53)"/><path d="M845.58,465.3c0,1,.06,2,0,3-.24,3-1.9,4.86-5,5s-4.92-1.72-5.29-4.67a27.31,27.31,0,0,1,0-6.7c.37-3,2.25-4.73,5.34-4.6s4.72,1.94,4.93,5C845.64,463.3,845.59,464.3,845.58,465.3Z" transform="translate(-794.2 -380.53)"/><path d="M874.71,456.17c0,4-4.32,6.65-7.61,4.4a24.22,24.22,0,0,1-6-6c-2.3-3.28.25-7.62,4.25-7.71C868.72,446.8,874.73,452.76,874.71,456.17Z" transform="translate(-794.2 -380.53)"/></svg>