<svg id="Capa_1" data-name="Capa 1" xmlns="http://www.w3.org/2000/svg" viewBox="0 0 344.1 383.23"><path d="M948.08,731.61c-6.89-1-13.9-1.43-20.63-3.05a217.84,217.84,0,0,1-28.23-8.34c-15.26-5.93-23-17.71-23.38-34.09a5.82,5.82,0,0,0-3.14-5.61c-48-29.74-76.29-72.33-83.39-128.57-1.45-11.51-2.58-23.12,1.17-34.49,5.09-15.47,15.64-26.73,28.44-36.12,18.78-13.77,40-22.31,62.37-28,48.94-12.42,98.15-12.89,147.51-2.44a21.86,21.86,0,0,1,2.89.74c3,1.06,4.36,3.25,3.87,6.39a5.28,5.28,0,0,1-6.38,4.33c-6.39-1.08-12.7-2.62-19.11-3.56-51.67-7.62-102.45-5-151.68,13.87-15.8,6.06-30.51,14.17-42.81,26.1-21.68,21-21.59,46.46.18,67.46,11.31,10.91,24.78,18.34,39.06,24.5,1,.44,2.09.82,3.09,1.32,3.27,1.66,4.52,4.79,3.15,7.72a5.43,5.43,0,0,1-7.63,2.43c-10.11-5.08-20.38-9.94-30-15.82-6.81-4.15-12.71-9.8-18.77-14.58,12.91,59.78,72.62,122.21,157,121.26,87.69-1,142.82-67.59,153.61-120.39-8.28,5.93-16.94,13.12-26.5,18.79-23.45,13.92-49.34,21.13-76.06,25.57a326,326,0,0,1-69.36,3.71,296.93,296.93,0,0,1-62.36-9.4c-4-1.07-6-3.68-5.3-6.83.76-3.43,3.76-5.06,7.9-4a307.69,307.69,0,0,0,92,9c35.18-1.68,69.28-8.13,101.06-24.09,12.79-6.42,24.6-14.32,33.62-25.69,14.49-18.25,14.15-38.09-.94-55.85-11.42-13.43-26.23-22.06-42.13-29-4.33-1.9-8.8-3.47-13.17-5.27-3.34-1.37-4.78-4.16-3.82-7.09,1-3.11,4.09-4.63,7.59-3.38,20.11,7.19,39,16.53,54.59,31.57,14.45,14,21.16,30.67,19.52,51.15-4.85,60.86-33.27,107-85,139a4.63,4.63,0,0,0-2.48,4.48q-.36,25.27-23.71,35.13c-14.15,5.94-29,9.06-44.19,10.39-1.47.13-2.91.46-4.37.7Zm-60.68-43a16.65,16.65,0,0,0,0,2,20.21,20.21,0,0,0,.44,2.19c2.62,10.1,9.86,15.36,19.17,18.69,28.46,10.2,57.52,11.4,86.9,5.41a148,148,0,0,0,24.49-7.78c8.69-3.43,14.51-12.46,14-20.38C984.25,709.67,936.05,709.7,887.4,688.6Z" transform="translate(-787.95 -348.39)"/><path d="M826.2,543.05c11.76-18.19,29.22-28.33,48.39-35.84,32.58-12.75,66.56-16.68,101.33-14.64,25.68,1.52,50.66,6.34,74.38,16.63,15.6,6.77,29.94,15.39,40.41,29.28,1,1.39,2,2.86,3,4.3,4-3.35,5.41-9.67,3.5-15.26-2-6-6.15-10.5-10.78-14.56-11.53-10.12-25.11-16.59-39.42-21.6-30.62-10.74-62.3-14.45-94.58-13.62-31.91.81-63,6-92.44,18.84-3.66,1.6-6.92.43-8.18-2.67s.14-6,4-7.71A216,216,0,0,1,909,470.62c42.12-6.95,84-5.78,125.37,5.09,19.63,5.16,38.48,12.4,54.67,25a75.72,75.72,0,0,1,13.86,14c8.66,11.51,8.46,23.53.17,35.32-7.68,10.9-18.4,18.16-29.95,24.26-19.81,10.48-41.1,16.51-63.1,20.07-41.5,6.74-82.74,5.51-123.52-5.09-20-5.2-39.11-12.65-55.78-25.32-6.61-5-12.42-10.8-16.37-18.22-4.75-8.93-4.75-17.91,0-26.82,4-7.41,9.82-13.16,16.45-18.15a5.41,5.41,0,0,1,7.72.71c2,2.37,1.6,5.55-.8,8.05-4.38,4.56-9.23,8.82-12.84,13.94C820.35,530,821.19,536.74,826.2,543.05Zm8.1,9.61c.51.34.94.59,1.34.89,1.4,1.05,2.74,2.18,4.17,3.17,23.22,16.11,49.69,23.18,77.11,27.39a288.56,288.56,0,0,0,80.91.77c22.6-2.91,44.58-8.18,65.26-18A95.9,95.9,0,0,0,1086.22,552c-2.69-3.75-4.94-7.66-7.92-10.9-10.72-11.67-24.37-18.93-39-24.24-44.27-16-89.44-17.47-135.1-7.14-19.71,4.46-38.41,11.56-54.59,24.13C843.24,538.76,837.6,544.36,834.3,552.66Z" transform="translate(-787.95 -348.39)"/><path d="M969.34,355.22c-1.39,3.54-2.34,7.33-4.26,10.55-2.88,4.82-3.12,9.16-.08,14,5.09,8,5,16.24-.08,24.26-3,4.65-2.61,8.87,0,13.64a36.64,36.64,0,0,1,3.58,11.19,5.29,5.29,0,0,1-4.86,6.33c-3.08.33-5.28-1.75-6.16-5.2a34.39,34.39,0,0,0-2.93-7.92c-4.16-7.66-4.5-15.3.18-22.68,3.36-5.3,3.22-10-.07-15.26-4.61-7.4-4.29-15,0-22.67a29.85,29.85,0,0,0,2.81-7.57c.86-3.55,2.91-5.64,6-5.44C966.69,348.62,968.72,351.17,969.34,355.22Z" transform="translate(-787.95 -348.39)"/><path d="M1011.24,391.84c-1.59,4.15-2.62,8.28-4.68,11.83-2.81,4.87-2.77,9.07,0,14a35.29,35.29,0,0,1,3.58,11.53,5.21,5.21,0,0,1-5.23,6c-3,.11-5.08-2-5.86-5.2a33.05,33.05,0,0,0-2.85-7.91c-4.2-7.64-4.54-15.29.13-22.66,3.36-5.28,3.34-9.89.09-15.25-1.86-3-2.7-6.91-3.23-10.51a5.43,5.43,0,0,1,5.27-6.38c3-.12,5.16,2.18,5.88,5.6a52.78,52.78,0,0,0,2.58,7.26C1008.27,383.89,1009.68,387.67,1011.24,391.84Z" transform="translate(-787.95 -348.39)"/><path d="M908.22,410.77c1.4-4,2.12-8,4.14-11.25,3.42-5.47,3.25-10.14,0-15.62-1.89-3.13-2.58-7.18-3.07-10.91-.42-3.17,2.16-5.54,5.14-5.72s5.15,2,6,5.13a37.08,37.08,0,0,0,3,8.24c4,7.56,4.37,15.12-.23,22.33-3.46,5.44-3.3,10.12,0,15.59,1.89,3.13,2.6,7.18,3.09,10.92.41,3.15-2.23,5.52-5.18,5.68s-5.16-2-5.92-5.1a83.27,83.27,0,0,0-2.78-7.95C911,418.43,909.66,414.75,908.22,410.77Z" transform="translate(-787.95 -348.39)"/><path d="M949.1,528c1.2-1.5,2-2.61,2.91-3.61,2.16-2.34,4.73-2.8,7.37-1s3.37,4.73,1.63,7.21c-2.1,3-5.06,5.39-7.59,8.09-.88,1-2,1.94-2.31,3.1-2.17,8.91-8.08,14.4-16.16,17.86-10.68,4.57-22,5.64-33.37,4.61a140.41,140.41,0,0,1-21.94-4.12,27,27,0,0,1-9.48-5c-9.44-7.33-8.17-19.94,2.44-25.5a31,31,0,0,1,7-2.62c12.83-3.07,25.64-6.26,38.57-8.87a46.45,46.45,0,0,1,14.13-.26A22.9,22.9,0,0,1,949.1,528Zm-39,25.54c3.66-.63,10.78-1.3,17.52-3.27a23.54,23.54,0,0,0,10.37-6.8c4.55-5.11,2.52-11.75-4.07-13.51a31.26,31.26,0,0,0-13.61-.83c-13.07,2.53-26,5.81-38.93,9-2.7.66-6.46,1.64-6,5,.28,2,3.17,4.25,5.4,5.35C888.93,552.46,897.83,552.94,910.13,553.5Z" transform="translate(-787.95 -348.39)"/><path d="M973,548.83a23.15,23.15,0,0,1,15,4.72c7.42,5.78,7.46,15.19.18,21.13-8.14,6.64-22.59,6.59-30.69-.1-7.14-5.89-7.1-15.08.12-20.88C962.11,550.1,967.33,548.76,973,548.83Zm-.21,19.91a43.5,43.5,0,0,0,6.44-1.77c1.2-.53,2-1.9,3-2.89-.95-.91-1.75-2.15-2.88-2.67a15,15,0,0,0-12.94,0c-1.12.51-1.88,1.77-2.81,2.69,1,1,1.83,2.35,3,2.9A40.33,40.33,0,0,0,972.78,568.74Z" transform="translate(-787.95 -348.39)"/><path d="M997.91,547.11c-7.45-.13-12.94-1.48-17.47-5.49-6.51-5.76-6.37-14.59.26-20.18,8.14-6.86,22.71-7,31-.23,7.15,5.81,7.15,15,0,20.91A23.55,23.55,0,0,1,997.91,547.11ZM996.4,536.4a71.12,71.12,0,0,0,7.75-2.74c2.05-1,2-2.55.11-4-3.71-2.83-12.28-2.81-15.9,0-2,1.53-1.73,3.08.26,4A71.65,71.65,0,0,0,996.4,536.4Z" transform="translate(-787.95 -348.39)"/><path d="M1043.94,530.6c6.29.17,12.12,1.62,16.73,6.23,5.41,5.4,5.4,12.88.07,18.35-8.13,8.36-25.21,8.4-33.44.08-5.42-5.49-5.38-13.26.2-18.64C1032.07,532.21,1037.78,530.75,1043.94,530.6Zm.09,10.72a67.42,67.42,0,0,0-7.59,2.54c-2.19,1-2.41,2.67-.28,4.27,3.74,2.8,12.4,2.69,15.9-.18,1.67-1.37,1.79-2.89-.09-3.8A71.78,71.78,0,0,0,1044,541.32Z" transform="translate(-787.95 -348.39)"/></svg>