<svg id="Capa_1" data-name="Capa 1" xmlns="http://www.w3.org/2000/svg" viewBox="0 0 345.2 384"><path d="M1070.27,348h4.5c3.8,2.11,5.9,5.22,5.24,9.55,1,.36,1.62.58,2.22.76,15.78,4.85,25,15.49,27.41,31.74.82,5.64.31,11.48.38,17.22,0,3.19,0,6.39,0,9.73h4.28c8.56,0,10.72,2.14,10.72,10.54v79.19c4.12.9,7.19,2.92,7.42,7.33.25,5-3.1,7.2-7.28,8.23V626.73c5.1,1.63,7.2,3.81,7.33,7.51s-1.94,6.12-7.37,8.22v44.13c6.24,2.28,7.4,3.93,7.4,10.47,0,8.24-.2,16.5.08,24.74.16,4.62-1.27,8-5.33,10.2H792.75c-4.06-2.21-5.49-5.57-5.33-10.2.28-8.24.08-16.5.08-24.75,0-6.55,1.16-8.19,7.4-10.46V642.21c-4.18-.83-7.25-3-7.32-7.6-.06-4.75,3.16-7,7.3-7.89V522.28c-5.23-1.7-7.46-4-7.33-7.86.16-4.63,3.19-6.72,7.47-7.72,0-2.44-.1-4.81,0-7.18a7.48,7.48,0,0,1,7.32-7.5c4.18-.07,7.41,3.1,7.61,7.61.11,2.34,0,4.68,0,7.14h74.74V432.12H810.24c-.17.57-.27,1.06-.44,1.52-1.5,4.2-4.74,6.39-8.49,5.74s-6.19-3.7-6.3-8.1c0-2,0-4,0-6,.12-5.24,3-8.13,8.1-8.27,2.21-.06,4.42,0,6.9,0,0-7.92-.1-15.39,0-22.87a36.86,36.86,0,0,1,11.64-26.74c5.14-5,11.37-8,18.33-9.74-.51-4.61,1.57-7.6,5.25-9.65h4.51c3.8,2.11,5.89,5.22,5.24,9.53,17.08,4.93,27.45,15.55,29.65,32.91.94,7.38.29,15,.36,22.47,0,1.31,0,2.63,0,4.09h4.67c8,0,10.33,2.28,10.33,10.19V489c5.56-2.4,10.69-4.93,16.06-6.77a5.52,5.52,0,0,0,4.13-4.36c4.19-15,13.94-24.72,28.8-29.34,1.15-.36,2.31-.67,3.4-1V432.24l-1.52-.5c-3.47-1.11-5.56-3.5-5.63-7.12s2-6,5.35-7.37a5.44,5.44,0,0,0,2.34-2.74c1.44-3.18,3.75-5,7.24-4.95,3.32.07,5.46,1.91,6.91,4.91a7.11,7.11,0,0,0,3,3.06c3,1.51,4.71,3.8,4.67,7.07a7.07,7.07,0,0,1-4.56,6.72c-.87.39-1.77.71-2.56,1v15.18c17.25,4.36,28.35,14.81,32.76,32.09a3,3,0,0,0,1.41,1.86c6,2.49,12.08,4.86,18.2,7.29V427.91c0-8.83,2-10.9,10.73-10.91H1035c0-7.91-.1-15.39,0-22.86a36.84,36.84,0,0,1,11.64-26.75c5.13-5,11.36-8,18.33-9.74C1064.51,353,1066.58,350.05,1070.27,348ZM1020,626.75v-3.09q0-50.42,0-100.83c0-15.25-10.4-26.08-25.76-27.08-5-.32-7.52-3-8-8.05a36.28,36.28,0,0,0-1.88-9.1,26.18,26.18,0,0,0-50.52,8.3c-.34,5.7-2.68,8.43-7.59,8.84-16.53,1.35-26.19,11.72-26.2,28.17q0,49.49,0,99V627a30.63,30.63,0,0,1,4.24,0c4.12.63,6.5-.89,8.9-4.58,21.54-33.08,70-34.18,92.32-1.82C1009.47,626.42,1013.45,627.78,1020,626.75Zm-.16,15.25c-4.66,0-8.91-.13-13.14,0-4.42.18-7.23-1.66-9.16-5.65-7.6-15.76-20.27-24.33-37.74-24.25-17.31.08-29.85,8.64-37.37,24.27-1.92,4-4.75,5.8-9.16,5.63s-8.66,0-13,0v44.7h33.5c0-11.42-.1-22.54,0-33.65a26.28,26.28,0,0,1,23.79-26,26,26,0,0,1,28,21.17c.76,4.12.58,8.45.62,12.68.08,8.58,0,17.16,0,25.81h33.6Zm90-209.8h-74.6v74.53h74.6Zm-74.67,254.53h74.54V642.2h-74.54Zm-225,0h74.53V642.19H810.18Zm225-120h74.54V522.19h-74.54Zm-150.43.08V522.28H810.19v44.54Zm.09,15.44H810.3v44.53H825c0-5.3-.12-10.4,0-15.49a22.46,22.46,0,0,1,44.91,0c.15,5.18,0,10.37,0,15.47h14.86ZM1050,626.83c0-4.79,0-9.27,0-13.75.07-13.46,9.65-23.53,22.41-23.57s22.5,10,22.59,23.4c0,4.59,0,9.17,0,13.85h14.73V582.3h-74.53v44.53Zm-37.65,75.45H907.7v14.5h104.67ZM802.68,716.75h89.53V702.19H802.68Zm314.68-14.48H1027.7V716.8h89.66Zm-146.1-15.44c0-11.29,0-22.14,0-33,0-6.88-4.94-11.9-11.34-11.83s-11.09,5.09-11.13,12c0,10,0,20,0,29.94,0,1,.17,1.89.26,2.83Zm-101.54-270V402.18h-44.5v14.67Zm225.07.08V402.26h-44.48v14.67ZM826.65,386.78H868.3a22.06,22.06,0,0,0-41.65,0Zm266.62,0c-2.61-8.93-11.65-15.08-21.57-14.8-9.17.26-18,6.8-19.85,14.8ZM855,626.84c0-5.31.16-10.29-.05-15.26a7.33,7.33,0,0,0-7.35-7.05,7.24,7.24,0,0,0-7.42,6.54c-.28,5.19-.07,10.41-.07,15.77Zm210.07-.12h15c0-5.14.13-10,0-14.86a7.45,7.45,0,0,0-14.89,0C1064.92,616.76,1065,621.62,1065,626.72Z" transform="translate(-787.41 -348)"/><path d="M847.21,492c-4.61,0-9.23.05-13.84,0-5.41-.08-8.28-3-8.35-8.37-.06-4.86-.1-9.72,0-14.59a22.47,22.47,0,0,1,44.93-.16c.14,5,.11,10,0,15-.09,5.14-3,8.07-8.19,8.16C856.94,492.06,852.07,492,847.21,492Zm-7-15.26h14.57c1.35-11.61-2-14.55-7.27-14.59C842.62,462.11,838.83,464.7,840.21,476.74Z" transform="translate(-787.41 -348)"/><path d="M810,465.89a7.47,7.47,0,1,1-7.13-7.61A7.57,7.57,0,0,1,810,465.89Z" transform="translate(-787.41 -348)"/><path d="M937.51,566.66c0-7,0-13.95,0-20.93,0-13.68,9.71-23.79,22.63-23.72,12.75.06,22.3,10.14,22.36,23.63,0,7,0,14,0,20.75,1.76.89,3.49,1.42,4.78,2.48a6.77,6.77,0,0,1,2.22,8.08c-1.29,3.44-3.92,5-7.54,5q-16.49,0-33,0c-3.5,0-7,0-10.49,0-4.66-.06-7.79-2.47-8.41-6.39s1.65-7,6.19-8.51Zm30,.16v-3.21c0-6.49.12-13-.08-19.48a7.31,7.31,0,0,0-7.3-7.1c-3.73-.06-7.33,2.69-7.46,6.49-.27,7.7-.08,15.42-.08,23.3Z" transform="translate(-787.41 -348)"/><path d="M1072.3,492c-4.61,0-9.23.05-13.84,0-5.44-.08-8.35-2.93-8.42-8.3-.07-4.86-.1-9.72,0-14.59a22.47,22.47,0,0,1,44.94,0c.11,4.74.07,9.48,0,14.22-.06,5.68-2.88,8.54-8.49,8.62C1081.78,492.05,1077,492,1072.3,492Zm-7.25-15.2H1080c-.3-4.88,1.62-10.06-3.41-13.52a6.77,6.77,0,0,0-8.09,0C1063.43,466.72,1065.37,471.9,1065.05,476.8Z" transform="translate(-787.41 -348)"/><path d="M1080,544.67a7.47,7.47,0,1,1-7.11-7.64A7.57,7.57,0,0,1,1080,544.67Z" transform="translate(-787.41 -348)"/><path d="M855,544.45a7.48,7.48,0,1,1-7.33-7.42A7.56,7.56,0,0,1,855,544.45Z" transform="translate(-787.41 -348)"/></svg>