<?xml version="1.0" encoding="utf-8"?>
<!-- Generator: Adobe Illustrator 24.3.0, SVG Export Plug-In . SVG Version: 6.00 Build 0)  -->
<svg version="1.1" id="Capa_1" xmlns="http://www.w3.org/2000/svg" xmlns:xlink="http://www.w3.org/1999/xlink" x="0px" y="0px"
	 viewBox="0 0 112.6 193.7" style="enable-background:new 0 0 112.6 193.7;" xml:space="preserve">
<style type="text/css">
	.st0{fill:#FFFFFF;}
</style>
<path class="st0" d="M39.5,58.4c1.8-0.2,2.7-0.3,3.4-0.5c1.5-0.4,3.1-0.8,4.6-1.3c-0.7-1.3-1.2-2.9-2.3-3.9
	c-1.8-1.8-1.8-3.5,0.5-4.2c3.6-1.2,7.4-1.8,10.8,1.7c-2.5,3.2-3.7,6.1,0,9.2c0.6,0.5-0.2,3.9-1.3,4.9c-3,2.6-6.7,4.4-9.7,7.1
	c-1.7,1.5-2.9,3.6-3.3,5.8c-0.3,5-0.4,10-0.2,15c0.1,6.3,2.5,8.9,8.7,9c10.7,0.2,21.3,0.5,32,0.3c7.9-0.2,14,2,17.4,9.7
	c0.6,1.4,3.1,2.2,4.8,2.7c4.9,1.3,7.4,4.2,7.4,9.3c0,5.6,0,11.2,0,16.8l-1.5,1.1l-10.3-6.7c-0.1,1.7-0.4,3.3-0.4,5c0,16,0,32-0.1,48
	c0,5-1.6,6.2-7.3,6.1s-7.2-1.3-7.2-6.3c-0.1-9.7-0.2-19.3,0.1-29c0.2-2.5,1.1-5,2.7-7c3.7-4.9,4.7-9.4,2.1-14
	c-0.9,0.9-1.7,2-2.4,3.1c-4,8.6-11.3,11.8-20.2,12.1c-12.9,0.4-12.9,0.3-12.9,13.2c0,7.2-0.3,14.3,0.1,21.5c0.2,5.2-2.8,6.2-6.8,6.4
	c-5.9,0.3-8-1-8.1-6c-0.3-9-0.2-18-0.2-27c0-1.3,0.4-2.8-0.1-4c-0.6-1.5-2-2.6-3-3.9c-1.2,1.3-3.2,2.5-3.5,4
	c-0.5,3.1-0.2,6.3-0.2,9.5c0,7.3-0.1,14.7,0,22c0.1,5.3-3.6,5.3-7.1,5.4c-3.7,0-7.6,0.2-7.6-5.4c0.1-12.8,0-25.7,0.1-38.5
	c0-3.3-0.8-5.4-3.8-7.4c-7.7-5.1-12-12.7-12.1-21.8c-0.3-27-0.4-54,0.1-81C3.2,33,4.9,27.3,1.3,20.7C-2.1,14.4,1.6,7.4,6.3,2
	C9-1.2,11.2-0.4,12,3.7c0.9,4.6,1.6,9.2,2,13.8c0.4,3.9,1.7,5.3,6,4.9c7.8-0.9,15.5,2.2,20.5,8.3c2.1,2.4,2.7,4.8,0.6,7.6
	s-4.4,2.2-7,1.1c-2.1-1-4.3-1.8-6.5-2.5c-6-1.9-11.8-1.7-16,3.5c-5.1,6.3-5.9,13.9-2.8,21.3c2.6,6.3,8.6,8.4,14.9,8
	c4.4-0.2,8.8-1.7,13-3.2C40,65.3,42.6,63.1,39.5,58.4z"/>
<path class="st0" d="M79.1,176.4c0,3.8-0.2,7.7,0,11.5c0.3,5.1-3.2,5.6-6.8,5.8c-5.6,0.3-8-1.2-8.1-5.5c-0.1-8-0.1-16,0-23.9
	c0.1-4.6,3.2-8,6.7-7.8c5.7,0.3,7.6,2.2,7.9,8c0.1,2,0.1,4,0.1,6s0,4,0,6L79.1,176.4z"/>
<path class="st0" d="M34.4,0.2c6.1,3.4,9,13,6.2,18.2c-1.8,3.2-4.4,3.9-7.6,2.6c-3-1.2-3.6-3.5-2.7-6.5C31.8,9.9,33,5.2,34.4,0.2z"
	/>
<path class="st0" d="M22.8,43.5l6.5,3.9c-2.3,1.4-4.6,3.9-7,4c-2,0.1-4.2-2.5-6.3-3.9L22.8,43.5z"/>
</svg>
