<svg id="Capa_1" data-name="Capa 1" xmlns="http://www.w3.org/2000/svg" viewBox="0 0 384 384"><defs><style>.cls-1{fill:#fff;}</style></defs><path class="cls-1" d="M1152,721.52V732H768V348h293.43a23.83,23.83,0,0,1-2.45.75c-8.72,1.68-16.3,5.58-22.16,12.25-3.34,3.8-6,8.16-9.19,12.52a26.86,26.86,0,0,0-21.52-3.49c-11.66,3.07-19.34,10.46-22.58,22.14-.75,2.71-1.93,4.08-4.89,3.84a53.35,53.35,0,0,0-7.48,0c-12.9.82-21.62,10.07-21.46,22.7s9.31,22,22.14,22q70.15.19,140.32,0a22.32,22.32,0,0,0,4.49-44.09c-2.26-.52-4.61-.7-7-1.05,0-1.19,0-2.29,0-3.39.66-17.88-8.81-33.39-24.93-40.29-4.07-1.75-8.51-2.63-12.78-3.91H1152V651.16c-1.86-2.64-3.64-5.47-7.27-5.73a20,20,0,0,0-6.29.34c-3.13.8-5,.11-6.56-2.87-1.87-3.66-4.21-7.07-6.4-10.55s-5.19-4.59-8.12-2.89c-3.12,1.8-3.67,5-1.43,8.74,2.35,3.94,4.78,7.84,7.3,12-7.11,4.71-13.85,9.64-21.06,13.75-3.56,2-7.91,3-12,3.67-13.51,2.16-24.78-2.8-35.17-11.17-11.76-9.46-25.45-12.65-40.39-10.72a50,50,0,0,0-22.7,9l-35.63-26.07,27.39-44.46c.93.85,1.58,1.4,2.19,2,6,5.91,8.68,5.93,14.63-.09,3.56-3.6,7-7.3,10.7-11.11,6.26,6.3,12,12.08,17.7,17.79,4.35,4.33,7.91,4.36,12.23,0,3.4-3.43,6.63-7,10.07-10.69,1.58,1.5,2.58,2.41,3.53,3.37,5.66,5.63,11.29,11.29,17,16.92,4.94,4.93,8.3,4.91,13.31-.1,1.74-1.74,3.38-3.56,5.34-5.64,1.14,1.81,1.92,3.05,2.7,4.31,2.89,4.66,5.68,9.39,8.7,14a5.21,5.21,0,0,0,7.51,1.75c2.65-1.6,3.44-4.44,2-7.48a32.81,32.81,0,0,0-1.72-2.89l-34.87-56.68q-15.88-25.8-31.77-51.57c-3.91-6.32-10.62-8.09-15.83-4a20.16,20.16,0,0,0-4.39,5.48q-37.5,60.78-74.9,121.62c-.7,1.14-1.42,2.28-2.06,3.31-8.06-2.76-15.73-5.69-23.59-8s-16.2-3.94-24.28-6c-.73-.18-1.78-1.21-1.79-1.85-.11-9-.07-18.07-.07-27.82,5.56,3.78,10.46,7.15,15.4,10.45,5.57,3.71,10.54,1.5,11.71-5.14.84-4.71,1.69-9.42,2.57-14.28,9,1.88,17.52,3.62,26,5.46,3.17.69,5.74-.13,7.54-2.74,1.94-2.82,1.52-5.66-.54-8.3-.53-.69-1.11-1.35-1.62-2q-14.65-20.09-29.27-40.2a22.65,22.65,0,0,1-1.46-2.88c4.27.89,7.88,2,11.56,2.25a10,10,0,0,0,6.39-1.85c3-2.36,2.51-6.12-.29-10q-13.42-18.43-26.69-37c-.73-1-1.26-2.18-2.21-3.85,1.54.33,2.26.5,3,.64,3.24.63,6-.1,7.76-3.08s1.06-5.68-1.07-8.25c-21-25.29-35.62-54-45.65-85.12-1.09-3.39-2.86-5.88-6.7-6s-5.62,2.43-6.91,5.72q-7.35,18.78-14.92,37.46c-1.65,4.08-.93,7.08,2.35,8.57s6,.06,7.92-4c2.36-5.09,4.62-10.22,6.83-15.36,1.56-3.63,3-7.32,4.72-11.67,8.9,24.65,20.58,47,35.56,67-3.34.41-6.89-.1-9.12,1.39s-3,4.93-4.58,7.7c-.84-.54-2.09-1.32-3.32-2.15-9.67-6.58-9.67-6.59-17.89,1.79-.17.17-.4.29-.84.62l-3.54-3.74c-3.92-4.13-6.43-4.44-11.1-1.32-2.53,1.69-5,3.41-7.66,5.18-3-9-3-9-13.59-9,1.13-1.59,2.15-3,3.11-4.37,2.66-3.92,5.42-7.78,7.89-11.81a5.18,5.18,0,0,0-1.72-7.5c-2.74-1.69-5.42-1.37-7.32,1.2-6.53,8.8-13.09,17.6-19.22,26.69-1.1,1.63-1,5,0,6.83.9,1.65,3.64,2.52,5.75,3.17,1.26.4,2.85-.29,4.62-.54a36.35,36.35,0,0,1-1.81,3.18c-8.93,12.46-17.82,24.94-26.87,37.3-2.18,3-3.54,5.79-1.33,9.19,2.07,3.18,5,3.62,8.54,2.71,3.26-.84,6.61-1.32,10.65-2.11-1.15,1.83-1.74,2.91-2.46,3.9-9.62,13.19-19.2,26.41-28.94,39.51-2.3,3.09-4.22,6-1.92,9.8s5.93,3.4,9.64,2.58c7.88-1.74,15.78-3.37,24.09-5.13.79,4.64,1.55,9,2.28,13.42,1.31,7.81,6.19,9.92,12.75,5.49L848.47,581v23.71c-2.48,0-4.71,0-6.93,0-16.95.45-33.91.61-50.83,1.49-14.51.76-22,9.27-22,23.86v85.32c0,11.12,4.78,15.86,16,15.86q174.94,0,349.9.12C1142.73,731.35,1148.64,729.12,1152,721.52Z" transform="translate(-768 -348)"/><path d="M1152,721.52c-3.36,7.6-9.27,9.83-17.38,9.82q-174.94-.26-349.9-.12c-11.19,0-16-4.74-16-15.86V630c0-14.59,7.45-23.1,22-23.86,16.92-.88,33.88-1,50.83-1.49,2.22-.06,4.45,0,6.93,0V581L834,590.76c-6.56,4.43-11.44,2.32-12.75-5.49-.73-4.39-1.49-8.78-2.28-13.42-8.31,1.76-16.21,3.39-24.09,5.13-3.71.82-7.3,1.22-9.64-2.58s-.38-6.71,1.92-9.8c9.74-13.1,19.32-26.32,28.94-39.51.72-1,1.31-2.07,2.46-3.9-4,.79-7.39,1.27-10.65,2.11-3.52.91-6.47.47-8.54-2.71-2.21-3.4-.85-6.21,1.33-9.19,9-12.36,17.94-24.84,26.87-37.3a36.35,36.35,0,0,0,1.81-3.18c-1.77.25-3.36.94-4.62.54-2.11-.65-4.85-1.52-5.75-3.17-1-1.8-1.1-5.2,0-6.83,6.13-9.09,12.69-17.89,19.22-26.69,1.9-2.57,4.58-2.89,7.32-1.2a5.18,5.18,0,0,1,1.72,7.5c-2.47,4-5.23,7.89-7.89,11.81-1,1.41-2,2.78-3.11,4.37,10.58-.07,10.58-.07,13.59,9,2.61-1.77,5.13-3.49,7.66-5.18,4.67-3.12,7.18-2.81,11.1,1.32l3.54,3.74c.44-.33.67-.45.84-.62,8.22-8.38,8.22-8.37,17.89-1.79,1.23.83,2.48,1.61,3.32,2.15,1.54-2.77,2.39-6.24,4.58-7.7s5.78-1,9.12-1.39c-15-20.05-26.66-42.38-35.56-67-1.75,4.35-3.16,8-4.72,11.67-2.21,5.14-4.47,10.27-6.83,15.36-1.88,4.05-4.77,5.43-7.92,4s-4-4.49-2.35-8.57q7.54-18.71,14.92-37.46c1.29-3.29,3.06-5.81,6.91-5.72s5.61,2.57,6.7,6c10,31.15,24.69,59.83,45.65,85.12,2.13,2.57,2.82,5.28,1.07,8.25S921.25,472,918,471.4c-.72-.14-1.44-.31-3-.64,1,1.67,1.48,2.83,2.21,3.85q13.31,18.51,26.69,37c2.8,3.85,3.29,7.61.29,10a10,10,0,0,1-6.39,1.85c-3.68-.25-7.29-1.36-11.56-2.25a22.65,22.65,0,0,0,1.46,2.88q14.61,20.12,29.27,40.2c.51.7,1.09,1.36,1.62,2,2.06,2.64,2.48,5.48.54,8.3-1.8,2.61-4.37,3.43-7.54,2.74-8.51-1.84-17-3.58-26-5.46-.88,4.86-1.73,9.57-2.57,14.28-1.17,6.64-6.14,8.85-11.71,5.14-4.94-3.3-9.84-6.67-15.4-10.45,0,9.75,0,18.78.07,27.82,0,.64,1.06,1.67,1.79,1.85,8.08,2,16.28,3.68,24.28,6s15.53,5.21,23.59,8c.64-1,1.36-2.17,2.06-3.31q37.44-60.82,74.9-121.62a20.16,20.16,0,0,1,4.39-5.48c5.21-4.07,11.92-2.3,15.83,4q15.93,25.76,31.77,51.57l34.87,56.68a32.81,32.81,0,0,1,1.72,2.89c1.46,3,.67,5.88-2,7.48a5.21,5.21,0,0,1-7.51-1.75c-3-4.57-5.81-9.3-8.7-14-.78-1.26-1.56-2.5-2.7-4.31-2,2.08-3.6,3.9-5.34,5.64-5,5-8.37,5-13.31.1-5.66-5.63-11.29-11.29-17-16.92-1-1-2-1.87-3.53-3.37-3.44,3.67-6.67,7.26-10.07,10.69-4.32,4.35-7.88,4.32-12.23,0-5.75-5.71-11.44-11.49-17.7-17.79-3.66,3.81-7.14,7.51-10.7,11.11-6,6-8.58,6-14.63.09-.61-.59-1.26-1.14-2.19-2l-27.39,44.46,35.63,26.07a50,50,0,0,1,22.7-9c14.94-1.93,28.63,1.26,40.39,10.72,10.39,8.37,21.66,13.33,35.17,11.17,4.12-.66,8.47-1.64,12-3.67,7.21-4.11,13.95-9,21.06-13.75-2.52-4.14-5-8-7.3-12-2.24-3.77-1.69-6.94,1.43-8.74,2.93-1.7,5.85-.69,8.12,2.89s4.53,6.89,6.4,10.55c1.52,3,3.43,3.67,6.56,2.87a20,20,0,0,1,6.29-.34c3.63.26,5.41,3.09,7.27,5.73ZM780.23,656.85a11.55,11.55,0,0,0-.24,1.6c0,19.33,0,38.66-.06,58,0,3.25,1.6,3.58,4.21,3.58q176.24-.06,352.47,0c3.37,0,4.24-1.19,4.22-4.37-.12-17.83-.06-35.67-.06-53.5v-6.45c-5.73,2.39-10.92,4.09-15.64,6.66s-8.72,6.25-13.31,9c-18.2,10.87-36.54,11-54.77,0-4.26-2.56-8.06-5.89-12.31-8.47-14.77-9-29.7-9-44.52-.12-4.15,2.49-7.9,5.67-12,8.29-15.73,10.1-32.38,11-49.2,3.58-6.29-2.76-11.64-7.62-17.55-11.31-15-9.41-30.28-9.66-45.48-.43-4.14,2.52-7.9,5.67-12,8.3-15.1,9.75-31.23,10.63-47.52,4.07-6.35-2.56-11.86-7.22-17.67-11.06S787.23,657.56,780.23,656.85Zm201.83,4.86c-2-1.68-3.76-3.06-5.41-4.57-16-14.7-35.4-23-55.84-29.11-23.27-7-47.18-10.4-71.37-11.87a335,335,0,0,0-59.75,1.24c-5.59.67-9.43,4.31-9.63,9.66-.22,6,0,12,0,18.46,13.74.57,23.88,8.62,34.3,16.13a11.51,11.51,0,0,0,2.88,1.72c4.45,1.51,8.85,3.45,13.44,4.21,13.49,2.23,24.69-2.9,35.18-11.12,15.15-11.87,32.33-14.52,50.42-8.08,5.85,2.08,11.31,5.73,16.41,9.41,7.75,5.58,15.74,10,25.57,10.23C966.44,668.19,974.31,667.05,982.06,661.71Zm-69.17-83c.44-2.49.77-4.33,1.08-6.17s.58-3.69.91-5.53c1.1-6.06,4.08-8.07,10-6.82,5.47,1.15,10.93,2.28,16.82,3.5l-25.41-36a5.32,5.32,0,0,0-.59,1.11c-1.9,8.23-6.09,9.9-13,5.18l-16.37-11.13c-3,3.19-5.63,6.15-8.39,9-3.88,4-7.64,4-11.53-.13-2.73-2.9-5.4-5.85-8.2-8.89-6.17,4.19-12.1,8.31-18.14,12.27-4.71,3.1-9.56,1.11-10.91-4.32-.26-1.06-.5-2.11-.8-3.37l-25.58,36.24,17.05-3.57c5.53-1.16,8.62.89,9.63,6.41.72,3.9,1.41,7.81,2.2,12.18,6.73-4.58,13.08-8.94,19.47-13.25,4.59-3.1,7.31-2.77,11.14,1.3,3.31,3.51,6.56,7.08,10,10.8l9.67-10.49c4.1-4.44,6.72-4.77,11.69-1.43C899.9,569.93,906.16,574.2,912.89,578.76Zm14.82-68.85L905,476.84c-4.75,5.09-7,5.3-13,1.2l-8.52-5.8c-4,2.7-7.51,6.95-11,6.93-3.67,0-7.32-4.13-11.57-6.83-2.19,1.48-5.16,3.74-8.37,5.59-2.18,1.25-4.74,2.76-7,2.62s-4.26-2.25-6.23-3.4L816.8,509.9c4.27-.89,8-1.78,11.8-2.42,5.17-.88,8.08,1.29,9,6.44.48,2.64,1,5.27,1.53,8.34,5.22-3.55,9.93-6.78,14.68-10,4.57-3.06,7.35-2.71,11.14,1.35,2.41,2.58,4.79,5.2,7.28,7.9,2.61-2.81,4.8-5.18,7-7.55,4.31-4.6,6.73-4.87,12-1.32l14.21,9.59c.46-2.72.82-4.89,1.2-7.07,1.22-7,4-8.9,10.91-7.4C920.69,508.47,923.85,509.1,927.71,509.91ZM1033.19,504c-.9,1.33-1.63,2.3-2.26,3.34-13.07,21.22-26.06,42.48-39.25,63.62-1.82,2.93-1.58,4.66,1.86,6.38,3.89-3.94,7.88-8,11.91-12.06,4.77-4.78,7-4.77,11.81.09,5.85,5.86,11.68,11.76,17.7,17.82,4.13-4.17,7.87-8,11.68-11.77,3.62-3.58,6.25-3.57,9.93.07,6,6,12,11.94,18,18a29.63,29.63,0,0,1,2.94,4.25c1.73-1.64,2.37-2.22,3-2.85,4.75-4.94,4.46-3,1-8.74q-22.85-37.29-45.84-74.49C1034.87,506.55,1034.12,505.45,1033.19,504Zm-173,77.19V605.5l24.12,2.55V581.2c-2.51,2.68-4.5,4.89-6.58,7-3.61,3.67-7.45,3.68-11,0C864.69,586.1,862.72,583.91,860.21,581.21Z" transform="translate(-768 -348)"/><path d="M1071.91,348c4.27,1.28,8.71,2.16,12.78,3.91,16.12,6.9,25.59,22.41,24.93,40.29,0,1.1,0,2.2,0,3.39,2.42.35,4.77.53,7,1.05a22.32,22.32,0,0,1-4.49,44.09q-70.17.18-140.32,0c-12.83,0-22-9.45-22.14-22s8.56-21.88,21.46-22.7a53.35,53.35,0,0,1,7.48,0c3,.24,4.14-1.13,4.89-3.84,3.24-11.68,10.92-19.07,22.58-22.14a26.86,26.86,0,0,1,21.52,3.49c3.16-4.36,5.85-8.72,9.19-12.52,5.86-6.67,13.44-10.57,22.16-12.25a23.83,23.83,0,0,0,2.45-.75Zm-30.34,81.56h30.67c13,0,25.94.05,38.91,0,6.68,0,11.63-4.86,11.64-11.12s-4.91-11-11.58-11.22c-1.5,0-3,0-4.49,0-3.44-.06-6.31-1.67-7.5-4.68a18.82,18.82,0,0,1-.91-8.32c1.61-16.44-8.54-30.81-24.31-34.08-16.77-3.47-31.67,5.38-36.62,21.75-2.31,7.63-6.88,8.88-12.86,3.52a17.84,17.84,0,0,0-28,4.72,54.84,54.84,0,0,0-3,7.63c-2.16,5.89-6.77,9.29-13,9.46-3,.08-6-.12-9,.08-7.41.48-11.93,6.51-10.45,13.76,1.08,5.31,5.54,8.54,12,8.54Q1007.33,429.6,1041.57,429.56Z" transform="translate(-768 -348)"/></svg>