<svg id="Capa_1" data-name="Capa 1" xmlns="http://www.w3.org/2000/svg" viewBox="0 0 762.98 467.02"><defs><style>.cls-1{fill:#d52b1e;}.cls-2{fill:#fff;}</style></defs><path class="cls-1" d="M802.91,896.1V762.19H778.78v-26.3h83.67v26.3H838.51V896.1Z" transform="translate(-578.51 -735.89)"/><path class="cls-1" d="M864.82,896.1V781.77h32.24v19q5.54-9.88,11.08-15.13a18.85,18.85,0,0,1,13.45-5.24c1,0,2,0,2.77.1a7.74,7.74,0,0,1,2.17.49v32a29.46,29.46,0,0,0-4.84-1.68,22.46,22.46,0,0,0-5.64-.7,19.07,19.07,0,0,0-10.29,3,33.54,33.54,0,0,0-8.7,8.11V896.1Z" transform="translate(-578.51 -735.89)"/><path class="cls-1" d="M957.19,898.08q-8.7,0-14.63-4.15a26.11,26.11,0,0,1-8.91-10.58,31.21,31.21,0,0,1-3-13.16q0-10.68,4.25-18a38.89,38.89,0,0,1,11.18-12.26,76.89,76.89,0,0,1,15.23-8.41q8.29-3.45,16.41-6.23V813.82a20.6,20.6,0,0,0-.59-5.24,7.26,7.26,0,0,0-2-3.56,5.9,5.9,0,0,0-4.15-1.29,6.64,6.64,0,0,0-4.25,1.19,6.2,6.2,0,0,0-2.08,3.26,23.21,23.21,0,0,0-.79,4.65l-.79,8.31L933.06,820q1-20.57,11-30.36t30-9.79q17.41,0,26,9.59t8.6,24.82v53.41q0,7.13.3,12.46c.19,3.56.46,6.66.79,9.3s.62,4.88.89,6.72H981.72q-.6-4.54-1.39-9.89a44.79,44.79,0,0,0-1.18-6.33,28.85,28.85,0,0,1-7.42,12.66Q966.29,898.08,957.19,898.08Zm11.47-21.76a8.44,8.44,0,0,0,3.66-.79,10.88,10.88,0,0,0,3.07-2.17,22.43,22.43,0,0,0,2.37-2.77V839.33q-4,2.38-7.32,4.85a30.11,30.11,0,0,0-5.73,5.44,23.27,23.27,0,0,0-3.66,6.43,22.25,22.25,0,0,0-1.29,7.81c0,3.83.8,6.86,2.38,9.1A7.55,7.55,0,0,0,968.66,876.32Z" transform="translate(-578.51 -735.89)"/><path class="cls-1" d="M1042.44,896.1,1019.5,781.77h30.86l9.49,73,8.7-73h30.86L1075.87,896.1Z" transform="translate(-578.51 -735.89)"/><path class="cls-1" d="M1148.26,898.08q-12.45,0-21.36-4.45a31.19,31.19,0,0,1-13.65-13q-4.74-8.61-4.74-20.67V818q0-12.26,4.74-20.77a31.18,31.18,0,0,1,13.75-13q9-4.46,21.26-4.45,12.66,0,21.07,4.35A28.49,28.49,0,0,1,1182,797q4.24,8.5,4.25,21v22.95h-45.89v22a21.44,21.44,0,0,0,1,7.12,7.61,7.61,0,0,0,2.77,4,7.32,7.32,0,0,0,4.15,1.19,8.41,8.41,0,0,0,4.26-1.09,7.35,7.35,0,0,0,3-3.46,15.93,15.93,0,0,0,1.09-6.53V852h29.67v11.08q0,17.41-10.09,26.21T1148.26,898.08Zm-7.91-72.2h16.22V814.41a18.69,18.69,0,0,0-1.09-7.12,6.79,6.79,0,0,0-3-3.56,9.45,9.45,0,0,0-4.45-1,6.86,6.86,0,0,0-4.06,1.19,7.94,7.94,0,0,0-2.67,4.05,26.4,26.4,0,0,0-1,8.21Z" transform="translate(-578.51 -735.89)"/><path class="cls-1" d="M1205.23,896.1V735.89h32V896.1Z" transform="translate(-578.51 -735.89)"/><path class="cls-2" d="M745.17,843.44Q722,818.28,670.5,818.28h-92v367.46h62.72V1036.31h.27c-.36-36.64-.48-73.29.18-109.93.16-9,2.55-17-2.52-26.32-4.77-8.75.49-18.66,7-26.24,3.75-4.35,6.86-3.33,8,2.44q1.88,9.62,2.83,19.38c.53,5.41,2.31,7.46,8.37,6.88,11.27-1.09,21.09,2.82,28.68,11.6,2.92,3.39,3.71,6.66.86,10.68s-6.16,3.15-9.8,1.53a90.8,90.8,0,0,0-9.1-3.57c-8.37-2.66-16.53-2.41-22.37,4.88-7.11,8.89-8.2,19.45-4,29.77,3.61,8.86,12,11.72,20.82,11.21,6.13-.33,12.31-2.38,18.19-4.45,4.7-1.64,8.37-4.75,4-11.22,2.53-.33,3.71-.39,4.82-.67,2.15-.53,4.28-1.19,6.42-1.79-1-1.85-1.75-4-3.18-5.46-2.47-2.53-2.52-4.9.69-5.92,5-1.63,10.4-2.48,15.16,2.31-3.43,4.46-5.11,8.55.05,12.85.84.7-.21,5.47-1.75,6.85-4.16,3.68-9.34,6.2-13.52,9.88-2.25,2-4.35,5.29-4.63,8.19-.67,6.95-.32,14-.21,21,.14,8.78,3.51,12.45,12.21,12.63,10.49.24,21,.49,31.44.5a82.5,82.5,0,0,0,5.76-6.84q22.49-29.87,22.5-82Q768.39,868.61,745.17,843.44Zm-51.06,53.39c-2.46,4.43-6.11,5.51-10.64,3.66-4.21-1.72-5.05-4.9-3.72-9.14,2-6.38,3.72-12.86,5.75-20C694.06,876.15,698.15,889.56,694.11,896.83ZM668.44,943c-2.87.11-5.9-3.53-8.87-5.51l9.58-5.49,9.1,5.44C675,939.49,671.78,942.9,668.44,943Z" transform="translate(-578.51 -735.89)"/><path class="cls-2" d="M764.52,1041.31q0-23.52,15.17-37.46t40.78-13.94q23.34,0,38.22,14.7t14.89,37.84V1147q0,26-14.61,40.78t-40.21,14.79q-24.64,0-39.45-15.26t-14.79-41.07ZM803.4,1150q0,8.34,4,12.9t11.37,4.55q7.59,0,12-4.65t4.46-12.8v-110.2a13.69,13.69,0,0,0-4.56-10.72q-4.55-4.07-12-4.07a15.41,15.41,0,0,0-11.09,4.07,14.13,14.13,0,0,0-4.27,10.72Z" transform="translate(-578.51 -735.89)"/><path class="cls-2" d="M916.44,1154.73V1026.51H893.11V995h23.33V936.8H954V995h28.07v31.48H954v124.61q0,8.73,4.26,13.09t12.43,4.36a27.58,27.58,0,0,0,4.64-.47c1.84-.31,4-.79,6.55-1.42l.19,33a64.69,64.69,0,0,1-10.62,2.47,80.09,80.09,0,0,1-11.19.76q-22,0-32.91-12.05T916.44,1154.73Z" transform="translate(-578.51 -735.89)"/><path class="cls-2" d="M1005.78,1041.31q0-23.52,15.17-37.46t40.78-13.94q23.32,0,38.22,14.7t14.89,37.84V1147q0,26-14.61,40.78T1060,1202.52q-24.66,0-39.45-15.26t-14.79-41.07ZM1044.66,1150q0,8.34,4,12.9t11.38,4.55q7.59,0,12-4.65t4.45-12.8v-110.2a13.68,13.68,0,0,0-4.55-10.72q-4.54-4.07-12-4.07a15.41,15.41,0,0,0-11.09,4.07,14.13,14.13,0,0,0-4.27,10.72Z" transform="translate(-578.51 -735.89)"/><path class="cls-2" d="M1134.75,1142.59l36.42-8.16q2.46,17.64,8.34,25.33t16.5,7.68q8,0,12.71-4.84c3.16-3.23,4.74-7.55,4.74-13q0-15.75-38.31-44.76a6,6,0,0,0-1-.76Q1155,1089.68,1147,1076a59.72,59.72,0,0,1-8.06-30.92q0-24.84,15.37-40t40.21-15.17q23.32,0,37.74,14t16.12,38.51L1212.7,1051q-2.09-12.9-7-19.25a15.75,15.75,0,0,0-13.09-6.35q-7.59,0-11.95,4.83t-4.36,13q0,13.29,26.74,34.34l11.19,9.1q21.06,17.64,28.83,31a58.64,58.64,0,0,1,7.78,30.06q0,25-15.46,40.12t-40.87,15.08q-24.29,0-40.21-15.94T1134.75,1142.59Z" transform="translate(-578.51 -735.89)"/><path class="cls-2" d="M1305.64,976.06h-30.72l18.39-42.1h48.18Zm-28.07,221.34V995h38.12V1197.4Z" transform="translate(-578.51 -735.89)"/></svg>